<svg width="64" height="64" fill="none" xmlns="http://www.w3.org/2000/svg"><circle cx="25" cy="26" r="25" fill="#FFF7E4"/><path d="M36.58 43.56c-.16.02-.32.02-.48 0l-2-.5A18 18 0 0 1 21 30l-.5-2a2 2 0 0 1 .52-1.9l12.4-12.38a42 42 0 0 1 26-12.14l1.12-.1A2 2 0 0 1 62 2a2 2 0 0 1 .58 1.6v1.12a42.12 42.12 0 0 1-12.14 26L38 42.98a2 2 0 0 1-1.42.58zm-12-15.54.22.92A14 14 0 0 0 35 39.12l.9.22 11.58-11.58A38.26 38.26 0 0 0 58.4 5.6a38.26 38.26 0 0 0-22.16 10.84L24.58 28.02z" fill="#FFB431"/><path d="M56.1 21.04a1.8 1.8 0 0 1-.56 0A18.34 18.34 0 0 1 48 16.1a18.36 18.36 0 0 1-4.92-7.86 2 2 0 0 1 1.38-2.46 2 2 0 0 1 2.48 1.38 14.421 14.421 0 0 0 3.88 6.12 14.44 14.44 0 0 0 6 3.84 2.02 2.02 0 1 1-.58 4l-.14-.08zM17.38 48.62A2 2 0 0 1 16 48a2 2 0 0 1 0-2.82l14.38-14.4a2.01 2.01 0 0 1 3.275.651 2.006 2.006 0 0 1-.435 2.189L18.78 48a2 2 0 0 1-1.4.62zM4 33.66a2 2 0 0 1-1.42-3.42L12 20.92a15.82 15.82 0 0 1 13.2-4.58l5.86.7a2 2 0 0 1 1.66 1.34 2 2 0 0 1-.48 2l-8.38 8.38a2 2 0 0 1-1.02.56C16 30.76 4.66 33.56 4.54 33.6a1.997 1.997 0 0 1-.54.06zm19.2-13.44a12 12 0 0 0-8.4 3.52L10.52 28c3.46-.84 7.6-1.78 10.94-2.46l5.04-5.06-1.78-.2c-.485-.05-.973-.07-1.46-.06h-.06zM32.34 62a1.998 1.998 0 0 1-.98-.26 1.999 1.999 0 0 1-.96-2.22c0-.12 2.84-11.36 4.22-18.3a2 2 0 0 1 .56-1.02l8.38-8.38a2 2 0 0 1 2-.48A2 2 0 0 1 46.9 33l.7 5.86A16 16 0 0 1 43.08 52l-9.32 9.34a2 2 0 0 1-1.42.66zm6-19.4c-.6 3.28-1.54 7.4-2.34 10.88l4.3-4.28a12 12 0 0 0 3.42-10l-.2-1.78-5.18 5.18zM40.82 29.18a6 6 0 0 1-4.24-10.26 6.18 6.18 0 0 1 8.5 0 6 6 0 0 1 0 8.5 6 6 0 0 1-4.26 1.76zm0-8a2 2 0 0 0-1.4.58 2 2 0 0 0 0 2.82 2 2 0 0 0 2.82 0 2 2 0 0 0-1.42-3.4z" fill="#FFB431"/><path d="M4 62a2 2 0 0 1-2-2c0-21.08 14.6-27.58 15.22-27.84a2 2 0 1 1 1.56 3.68C18.3 36 6.92 41.24 6 58c16.7-.86 21.88-12.24 22.1-12.74a2 2 0 0 1 3.7.047 2.004 2.004 0 0 1-.02 1.533C31.58 47.4 25.08 62 4 62z" fill="#FFB431"/></svg>