<svg width="64" height="64" fill="none" xmlns="http://www.w3.org/2000/svg"><circle cx="39" cy="32" r="25" fill="#FFF3EE"/><path d="M44 62H20a6 6 0 0 1-6-6V8a6 6 0 0 1 6-6h24a6 6 0 0 1 6 6v48a6 6 0 0 1-6 6zM20 6a2 2 0 0 0-2 2v48a2 2 0 0 0 2 2h24a2 2 0 0 0 2-2V8a2 2 0 0 0-2-2H20z" fill="#FE917B"/><path d="M44 56H20a6 6 0 0 1-6-6 2 2 0 0 1 4 0 2 2 0 0 0 2 2h24a2 2 0 0 0 2-2 2 2 0 0 1 4 0 6 6 0 0 1-6 6zM32 12h-6a2 2 0 0 1 0-4h6a2 2 0 0 1 0 4zM40 12h-2a2 2 0 0 1 0-4h2a2 2 0 0 1 0 4zM32.008 42a2 2 0 0 1-2-2V24a2 2 0 0 1 4 0v16a2 2 0 0 1-2 2z" fill="#FE917B"/><path d="M32.008 42a1.999 1.999 0 0 1-1.42-.58l-4-4a2.008 2.008 0 0 1 2.84-2.84l2.58 2.6 2.58-2.6a2.008 2.008 0 1 1 2.84 2.84l-4 4a1.999 1.999 0 0 1-1.42.58z" fill="#FE917B"/></svg>