<svg width="64" height="64" fill="none" xmlns="http://www.w3.org/2000/svg"><circle cx="25" cy="32" r="25" fill="#F0F8FF"/><path d="M44 62H20a6 6 0 0 1-6-6V8a6 6 0 0 1 6-6h24a6 6 0 0 1 6 6v10a2 2 0 0 1-4 0V8a2 2 0 0 0-2-2H20a2 2 0 0 0-2 2v48a2 2 0 0 0 2 2h24a2 2 0 0 0 2-2V37.88a2 2 0 0 1 4 0V56a6 6 0 0 1-6 6z" fill="#8DCBFD"/><path d="M44 56H20a6 6 0 0 1-6-6 2 2 0 0 1 4 0 2 2 0 0 0 2 2h24a2 2 0 0 0 2-2 2 2 0 0 1 4 0 6 6 0 0 1-6 6zM32 12h-6a2 2 0 0 1 0-4h6a2 2 0 0 1 0 4zM40 12h-2a2 2 0 0 1 0-4h2a2 2 0 0 1 0 4zM38 46a2 2 0 0 1-1.84-1.24 2 2 0 0 1 .42-2.18 6.62 6.62 0 0 0 1.86-4c-5.18-2-8.44-6-8.44-10.58 0-6.62 7.18-12 16-12s16 5.38 16 12c0 5.72-5.4 10.62-12.74 11.74C46.7 46 38.2 46 38 46zm8-26c-6.5 0-12 3.66-12 8 0 3.1 2.78 6 7.08 7.28a2 2 0 0 1 1.42 1.86 12.959 12.959 0 0 1-.5 4.1 5.641 5.641 0 0 0 3.88-3.8 2 2 0 0 1 1.76-1.52c6-.54 10.42-4 10.42-8C58 23.66 52.5 20 46 20z" fill="#8DCBFD"/></svg>