<svg width="154" height="48" fill="none" xmlns="http://www.w3.org/2000/svg"><path d="M10.703 13.632c3.99 0 7.05.981 9.184 2.944 2.133 1.941 3.2 4.65 3.2 8.128 0 3.477-1.046 6.23-3.136 8.256-2.07 2.027-5.238 3.04-9.504 3.04H2.799V13.632h7.904zm.256 17.952c2.283 0 4.032-.576 5.248-1.728 1.237-1.152 1.856-2.827 1.856-5.024s-.619-3.883-1.856-5.056c-1.216-1.195-3.094-1.792-5.632-1.792H7.79v13.6h3.168zm30.866 1.92c-1.942 1.835-4.224 2.752-6.848 2.752-2.603 0-4.758-.8-6.464-2.4-1.707-1.621-2.56-3.787-2.56-6.496 0-2.71.864-4.864 2.592-6.464 1.749-1.6 3.808-2.4 6.176-2.4 2.368 0 4.373.715 6.016 2.144 1.664 1.43 2.496 3.392 2.496 5.888v2.56H30.689c.149.939.64 1.707 1.472 2.304.832.597 1.77.896 2.816.896 1.685 0 3.072-.565 4.16-1.696l2.688 2.912zm-3.456-7.84c-.107-1.024-.491-1.813-1.152-2.368-.662-.555-1.472-.832-2.432-.832-.939 0-1.803.288-2.592.864-.79.576-1.248 1.355-1.376 2.336h7.552zM51.494 36h-4.8V12.256h4.8V36zm9.344 0h-4.8V18.784h4.8V36zm-4.416-19.392c-.534-.555-.8-1.227-.8-2.016 0-.79.266-1.45.8-1.984a2.746 2.746 0 0 1 2.016-.832c.789 0 1.45.277 1.984.832.554.533.832 1.195.832 1.984 0 .79-.278 1.461-.832 2.016-.534.533-1.195.8-1.984.8-.79 0-1.462-.267-2.016-.8zM70.022 36l-6.817-17.248h4.992L72.485 29.6l4.288-10.848h4.992L74.95 36h-4.928zm29.021-2.496c-1.941 1.835-4.224 2.752-6.848 2.752-2.602 0-4.757-.8-6.464-2.4-1.706-1.621-2.56-3.787-2.56-6.496 0-2.71.864-4.864 2.592-6.464 1.75-1.6 3.808-2.4 6.176-2.4 2.368 0 4.374.715 6.016 2.144 1.664 1.43 2.496 3.392 2.496 5.888v2.56H87.907c.15.939.64 1.707 1.472 2.304a4.71 4.71 0 0 0 2.816.896c1.686 0 3.072-.565 4.16-1.696l2.688 2.912zm-3.456-7.84c-.106-1.024-.49-1.813-1.152-2.368-.661-.555-1.472-.832-2.432-.832-.938 0-1.802.288-2.592.864-.789.576-1.248 1.355-1.376 2.336h7.552zm17.382-2.656c-1.43 0-2.496.512-3.2 1.536-.704 1.003-1.056 2.336-1.056 4V36h-4.8V18.784h4.8v2.272c.618-.704 1.386-1.301 2.304-1.792.938-.49 1.888-.747 2.848-.768l.032 4.512h-.928z" fill="#DA4446"/><path d="M117.549 13.632h4.992V36h-4.992V13.632zm14.82 12.768V36h-4.8V18.784h4.8v1.92c1.451-1.472 3.083-2.208 4.896-2.208 1.813 0 3.328.64 4.544 1.92 1.237 1.28 1.856 2.987 1.856 5.12V36h-4.8v-9.728c0-2.645-.971-3.968-2.912-3.968-.96 0-1.803.352-2.528 1.056-.704.683-1.056 1.696-1.056 3.04zm15.957 9.056c-.533-.555-.8-1.227-.8-2.016 0-.79.267-1.45.8-1.984a2.747 2.747 0 0 1 2.016-.832c.79 0 1.451.277 1.984.832.555.533.832 1.195.832 1.984 0 .79-.277 1.461-.832 2.016-.533.533-1.194.8-1.984.8-.789 0-1.461-.267-2.016-.8z" fill="#404396"/></svg>